# 3ds Max Wavefront OBJ Exporter v0.99 - (c)2007 guruware
# File Created: 12.10.2024 19:10:59

mtllib Arco.mtl

#
# object Cube
#

v  -5.1469 0.0993 1.5889
v  -8.6443 0.0993 1.5889
v  -8.6443 0.0000 1.5889
v  -5.1469 0.0000 1.5889
v  -5.1469 0.0993 -1.5889
v  -5.1469 0.0000 -1.5889
v  -8.6443 0.0993 -1.5889
v  -8.6443 0.0000 -1.5889
v  -8.7608 7.4897 -1.6948
v  -8.7608 7.4897 1.6948
v  -8.2044 7.7174 1.1893
v  -8.2044 7.7174 -1.1893
v  -8.6443 0.2052 1.5889
v  -8.6443 0.2052 -1.5889
v  -5.1469 0.2052 -1.5889
v  -5.1469 0.2052 1.5889
v  -8.4764 0.2655 1.4364
v  -8.4764 0.2655 -1.4364
v  -5.3148 0.2655 -1.4364
v  -5.3148 0.2655 1.4364
v  -8.4764 0.3206 1.4364
v  -8.4764 0.3206 -1.4364
v  -5.3148 0.3206 -1.4364
v  -5.3148 0.3206 1.4364
v  -8.2045 0.6599 1.1893
v  -8.2045 0.6599 -1.1893
v  -5.5867 0.6599 -1.1893
v  -5.5867 0.6599 1.1893
v  -8.2045 1.0193 1.1893
v  -8.2045 1.0193 -1.1893
v  -5.5867 1.0193 -1.1893
v  -5.5867 1.0193 1.1893
v  -8.3603 1.1294 1.3309
v  -8.3603 1.1294 -1.3309
v  -5.4309 1.1294 -1.3309
v  -5.4309 1.1294 1.3309
v  -8.3603 1.1879 1.3309
v  -8.3603 1.1879 -1.3309
v  -5.4309 1.1879 -1.3309
v  -5.4309 1.1879 1.3309
v  -8.2045 1.2288 1.1893
v  -8.2045 1.2288 -1.1893
v  -5.5867 1.2288 -1.1893
v  -5.5867 1.2288 1.1893
v  -8.2045 1.3087 1.1893
v  -8.2045 1.3087 -1.1893
v  -5.5867 1.3087 -1.1893
v  -5.5867 1.3087 1.1893
v  -8.2045 1.3515 1.1893
v  -8.2045 1.3515 -1.1893
v  -5.5867 1.3515 -1.1893
v  -5.5867 1.3515 1.1893
v  -8.2045 2.4002 1.1893
v  -8.2045 2.4002 -1.1893
v  -5.5867 2.4002 -1.1893
v  -5.5867 2.4002 1.1893
v  -8.2045 3.2511 1.1893
v  -8.2045 3.2511 -1.1893
v  -5.5867 3.2511 -1.1893
v  -5.5867 3.2511 1.1893
v  -8.2045 3.3693 1.1893
v  -8.2045 3.3693 -1.1893
v  -5.5867 3.3693 -1.1893
v  -5.5867 3.3693 1.1893
v  -8.2045 3.5180 1.1893
v  -8.2045 3.5180 -1.1893
v  -5.5867 3.5180 -1.1893
v  -5.5867 3.5180 1.1893
v  -8.2045 4.5693 1.1893
v  -8.2045 4.5693 -1.1893
v  -5.5867 4.5693 -1.1893
v  -5.5867 4.5693 1.1893
v  -8.2045 4.6675 1.1893
v  -8.2045 4.6675 -1.1893
v  -5.5867 4.6675 -1.1893
v  -5.5867 4.6675 1.1893
v  -8.2045 5.2967 1.1893
v  -8.2045 5.2967 -1.1893
v  -5.5867 5.2967 -1.1893
v  -5.5867 5.2967 1.1893
v  -8.2045 5.4506 1.1893
v  -8.2045 5.4506 -1.1893
v  -5.5867 5.4506 -1.1893
v  -5.5867 5.4506 1.1893
v  -8.2045 5.5527 1.1893
v  -8.2045 5.5527 -1.1893
v  -5.5867 5.5527 -1.1893
v  -5.5867 5.5527 1.1893
v  -8.2045 7.2658 1.1893
v  -8.2045 7.2658 -1.1893
v  -5.5867 7.2658 -1.1893
v  -5.5867 7.2658 1.1893
v  -8.7608 7.3337 1.6948
v  -8.7608 7.3337 -1.6948
v  -5.0304 7.3337 -1.6948
v  -5.0304 7.3337 1.6948
v  -5.0304 7.4897 -1.6948
v  -5.0304 7.4897 1.6948
v  -0.6197 14.2411 -1.1893
v  -0.6197 14.2411 1.1893
v  -0.0545 14.3702 1.1893
v  -0.0582 14.3702 -1.1893
v  -0.0499 12.8922 -1.1893
v  -8.1921 7.9882 1.1893
v  -8.1921 7.9882 -1.1893
v  -0.0499 12.8922 1.1893
v  -1.0882 14.0983 -1.1893
v  -1.5461 13.9475 -1.1893
v  -0.4213 12.7602 -1.1893
v  -1.9928 13.7888 -1.1893
v  -0.7830 12.6219 -1.1893
v  -2.4278 13.6224 -1.1893
v  -1.1345 12.4773 -1.1893
v  -2.8505 13.4485 -1.1893
v  -1.4753 12.3267 -1.1893
v  -3.2603 13.2674 -1.1893
v  -1.8051 12.1702 -1.1893
v  -3.6569 13.0792 -1.1893
v  -2.1233 12.0081 -1.1893
v  -4.0396 12.8843 -1.1893
v  -2.4296 11.8405 -1.1893
v  -4.4079 12.6828 -1.1893
v  -2.7237 11.6678 -1.1893
v  -4.7616 12.4750 -1.1893
v  -3.0051 11.4900 -1.1893
v  -5.0999 12.2612 -1.1893
v  -3.2734 11.3074 -1.1893
v  -5.4227 12.0416 -1.1893
v  -3.5285 11.1202 -1.1893
v  -5.7293 11.8166 -1.1893
v  -3.7698 10.9287 -1.1893
v  -6.0196 11.5863 -1.1893
v  -3.9972 10.7332 -1.1893
v  -6.2930 11.3511 -1.1893
v  -4.2103 10.5338 -1.1893
v  -6.5493 11.1113 -1.1893
v  -4.4088 10.3308 -1.1893
v  -6.7881 10.8672 -1.1893
v  -4.5926 10.1245 -1.1893
v  -7.0091 10.6191 -1.1893
v  -4.7614 9.9151 -1.1893
v  -7.2121 10.3673 -1.1893
v  -4.9150 9.7029 -1.1893
v  -7.3967 10.1121 -1.1893
v  -5.0531 9.4881 -1.1893
v  -7.5629 9.8539 -1.1893
v  -5.1757 9.2711 -1.1893
v  -7.7103 9.5929 -1.1893
v  -5.2825 9.0521 -1.1893
v  -7.8387 9.3295 -1.1893
v  -5.3734 8.8314 -1.1893
v  -7.9480 9.0640 -1.1893
v  -5.4483 8.6092 -1.1893
v  -8.0382 8.7968 -1.1893
v  -5.5072 8.3858 -1.1893
v  -8.1089 8.5282 -1.1893
v  -5.5499 8.1616 -1.1893
v  -8.1602 8.2586 -1.1893
v  -5.5763 7.9367 -1.1893
v  -5.5866 7.7116 -1.1893
v  -8.1602 8.2586 1.1893
v  -8.1089 8.5282 1.1893
v  -0.4213 12.7602 1.1893
v  -0.7830 12.6219 1.1893
v  -1.1345 12.4773 1.1893
v  -1.4753 12.3267 1.1893
v  -1.8051 12.1702 1.1893
v  -2.1233 12.0081 1.1893
v  -2.4296 11.8405 1.1893
v  -2.7237 11.6678 1.1893
v  -3.0051 11.4900 1.1893
v  -3.2734 11.3074 1.1893
v  -3.5285 11.1202 1.1893
v  -3.7698 10.9287 1.1893
v  -3.9972 10.7332 1.1893
v  -4.2103 10.5338 1.1893
v  -4.4088 10.3308 1.1893
v  -4.5926 10.1245 1.1893
v  -4.7614 9.9151 1.1893
v  -4.9150 9.7029 1.1893
v  -5.0531 9.4881 1.1893
v  -5.1757 9.2711 1.1893
v  -5.2825 9.0521 1.1893
v  -5.3734 8.8314 1.1893
v  -5.4483 8.6092 1.1893
v  -5.5072 8.3858 1.1893
v  -5.5499 8.1616 1.1893
v  -5.5763 7.9367 1.1893
v  -5.5866 7.7116 1.1893
v  -1.0882 14.0983 1.1893
v  -1.5461 13.9475 1.1893
v  -1.9928 13.7888 1.1893
v  -2.4278 13.6224 1.1893
v  -2.8505 13.4485 1.1893
v  -3.2603 13.2674 1.1893
v  -3.6569 13.0792 1.1893
v  -4.0396 12.8843 1.1893
v  -4.4079 12.6828 1.1893
v  -4.7616 12.4750 1.1893
v  -5.0999 12.2612 1.1893
v  -5.4227 12.0416 1.1893
v  -5.7293 11.8166 1.1893
v  -6.0196 11.5863 1.1893
v  -6.2930 11.3511 1.1893
v  -6.5493 11.1113 1.1893
v  -6.7881 10.8672 1.1893
v  -7.0091 10.6191 1.1893
v  -7.2121 10.3673 1.1893
v  -7.3967 10.1121 1.1893
v  -7.5629 9.8539 1.1893
v  -7.7103 9.5929 1.1893
v  -7.8387 9.3295 1.1893
v  -7.9480 9.0640 1.1893
v  -8.0382 8.7968 1.1893
v  5.1469 0.0993 1.5889
v  5.1469 0.0000 1.5889
v  8.6443 0.0000 1.5889
v  8.6443 0.0993 1.5889
v  5.1469 0.0993 -1.5889
v  5.1469 0.0000 -1.5889
v  8.6443 0.0993 -1.5889
v  8.6443 0.0000 -1.5889
v  8.7608 7.4897 -1.6948
v  8.2044 7.7174 -1.1893
v  8.2044 7.7174 1.1893
v  8.7608 7.4897 1.6948
v  8.6443 0.2052 -1.5889
v  8.6443 0.2052 1.5889
v  5.1469 0.2052 -1.5889
v  5.1469 0.2052 1.5889
v  8.4764 0.2655 -1.4364
v  8.4764 0.2655 1.4364
v  5.3148 0.2655 -1.4364
v  5.3148 0.2655 1.4364
v  8.4764 0.3206 -1.4364
v  8.4764 0.3206 1.4364
v  5.3148 0.3206 -1.4364
v  5.3148 0.3206 1.4364
v  8.2045 0.6599 -1.1893
v  8.2045 0.6599 1.1893
v  5.5867 0.6599 -1.1893
v  5.5867 0.6599 1.1893
v  8.2045 1.0193 -1.1893
v  8.2045 1.0193 1.1893
v  5.5867 1.0193 -1.1893
v  5.5867 1.0193 1.1893
v  8.3603 1.1294 -1.3309
v  8.3603 1.1294 1.3309
v  5.4309 1.1294 -1.3309
v  5.4309 1.1294 1.3309
v  8.3603 1.1879 -1.3309
v  8.3603 1.1879 1.3309
v  5.4309 1.1879 -1.3309
v  5.4309 1.1879 1.3309
v  8.2045 1.2288 -1.1893
v  8.2045 1.2288 1.1893
v  5.5867 1.2288 -1.1893
v  5.5867 1.2288 1.1893
v  8.2045 1.3087 -1.1893
v  8.2045 1.3087 1.1893
v  5.5867 1.3087 -1.1893
v  5.5867 1.3087 1.1893
v  8.2045 1.3515 -1.1893
v  8.2045 1.3515 1.1893
v  5.5867 1.3515 -1.1893
v  5.5867 1.3515 1.1893
v  8.2045 2.4002 -1.1893
v  8.2045 2.4002 1.1893
v  5.5867 2.4002 -1.1893
v  5.5867 2.4002 1.1893
v  8.2045 3.2511 -1.1893
v  8.2045 3.2511 1.1893
v  5.5867 3.2511 -1.1893
v  5.5867 3.2511 1.1893
v  8.2045 3.3693 -1.1893
v  8.2045 3.3693 1.1893
v  5.5867 3.3693 -1.1893
v  5.5867 3.3693 1.1893
v  8.2045 3.5180 -1.1893
v  8.2045 3.5180 1.1893
v  5.5867 3.5180 -1.1893
v  5.5867 3.5180 1.1893
v  8.2045 4.5693 -1.1893
v  8.2045 4.5693 1.1893
v  5.5867 4.5693 -1.1893
v  5.5867 4.5693 1.1893
v  8.2045 4.6675 -1.1893
v  8.2045 4.6675 1.1893
v  5.5867 4.6675 -1.1893
v  5.5867 4.6675 1.1893
v  8.2045 5.2967 -1.1893
v  8.2045 5.2967 1.1893
v  5.5867 5.2967 -1.1893
v  5.5867 5.2967 1.1893
v  8.2045 5.4506 -1.1893
v  8.2045 5.4506 1.1893
v  5.5867 5.4506 -1.1893
v  5.5867 5.4506 1.1893
v  8.2045 5.5527 -1.1893
v  8.2045 5.5527 1.1893
v  5.5867 5.5527 -1.1893
v  5.5867 5.5527 1.1893
v  8.2045 7.2658 -1.1893
v  8.2045 7.2658 1.1893
v  5.5867 7.2658 -1.1893
v  5.5867 7.2658 1.1893
v  8.7608 7.3337 -1.6948
v  8.7608 7.3337 1.6948
v  5.0304 7.3337 -1.6948
v  5.0304 7.3337 1.6948
v  5.0304 7.4897 -1.6948
v  5.0304 7.4897 1.6948
v  0.6197 14.2411 -1.1893
v  0.0582 14.3702 -1.1893
v  0.0545 14.3702 1.1893
v  0.6197 14.2411 1.1893
v  0.0499 12.8922 -1.1893
v  8.1921 7.9882 -1.1893
v  8.1921 7.9882 1.1893
v  0.0499 12.8922 1.1893
v  1.0882 14.0983 -1.1893
v  1.5461 13.9475 -1.1893
v  0.4213 12.7602 -1.1893
v  1.9928 13.7888 -1.1893
v  0.7830 12.6219 -1.1893
v  2.4278 13.6224 -1.1893
v  1.1345 12.4773 -1.1893
v  2.8505 13.4485 -1.1893
v  1.4753 12.3267 -1.1893
v  3.2603 13.2674 -1.1893
v  1.8051 12.1702 -1.1893
v  3.6569 13.0792 -1.1893
v  2.1233 12.0081 -1.1893
v  4.0396 12.8843 -1.1893
v  2.4296 11.8405 -1.1893
v  4.4079 12.6828 -1.1893
v  2.7237 11.6678 -1.1893
v  4.7616 12.4750 -1.1893
v  3.0051 11.4900 -1.1893
v  5.0999 12.2612 -1.1893
v  3.2734 11.3074 -1.1893
v  5.4227 12.0416 -1.1893
v  3.5285 11.1202 -1.1893
v  5.7293 11.8166 -1.1893
v  3.7698 10.9287 -1.1893
v  6.0196 11.5863 -1.1893
v  3.9972 10.7332 -1.1893
v  6.2930 11.3511 -1.1893
v  4.2103 10.5338 -1.1893
v  6.5493 11.1113 -1.1893
v  4.4088 10.3308 -1.1893
v  6.7881 10.8672 -1.1893
v  4.5926 10.1245 -1.1893
v  7.0091 10.6191 -1.1893
v  4.7614 9.9151 -1.1893
v  7.2121 10.3673 -1.1893
v  4.9150 9.7029 -1.1893
v  7.3967 10.1121 -1.1893
v  5.0531 9.4881 -1.1893
v  7.5629 9.8539 -1.1893
v  5.1757 9.2711 -1.1893
v  7.7103 9.5929 -1.1893
v  5.2825 9.0521 -1.1893
v  7.8387 9.3295 -1.1893
v  5.3734 8.8314 -1.1893
v  7.9480 9.0640 -1.1893
v  5.4483 8.6092 -1.1893
v  8.0382 8.7968 -1.1893
v  5.5072 8.3858 -1.1893
v  8.1089 8.5282 -1.1893
v  5.5499 8.1616 -1.1893
v  8.1602 8.2586 -1.1893
v  5.5763 7.9367 -1.1893
v  5.5866 7.7116 -1.1893
v  8.1602 8.2586 1.1893
v  8.1089 8.5282 1.1893
v  0.4213 12.7602 1.1893
v  0.7830 12.6219 1.1893
v  1.1345 12.4773 1.1893
v  1.4753 12.3267 1.1893
v  1.8051 12.1702 1.1893
v  2.1233 12.0081 1.1893
v  2.4296 11.8405 1.1893
v  2.7237 11.6678 1.1893
v  3.0051 11.4900 1.1893
v  3.2734 11.3074 1.1893
v  3.5285 11.1202 1.1893
v  3.7698 10.9287 1.1893
v  3.9972 10.7332 1.1893
v  4.2103 10.5338 1.1893
v  4.4088 10.3308 1.1893
v  4.5926 10.1245 1.1893
v  4.7614 9.9151 1.1893
v  4.9150 9.7029 1.1893
v  5.0531 9.4881 1.1893
v  5.1757 9.2711 1.1893
v  5.2825 9.0521 1.1893
v  5.3734 8.8314 1.1893
v  5.4483 8.6092 1.1893
v  5.5072 8.3858 1.1893
v  5.5499 8.1616 1.1893
v  5.5763 7.9367 1.1893
v  5.5866 7.7116 1.1893
v  1.0882 14.0983 1.1893
v  1.5461 13.9475 1.1893
v  1.9928 13.7888 1.1893
v  2.4278 13.6224 1.1893
v  2.8505 13.4485 1.1893
v  3.2603 13.2674 1.1893
v  3.6569 13.0792 1.1893
v  4.0396 12.8843 1.1893
v  4.4079 12.6828 1.1893
v  4.7616 12.4750 1.1893
v  5.0999 12.2612 1.1893
v  5.4227 12.0416 1.1893
v  5.7293 11.8166 1.1893
v  6.0196 11.5863 1.1893
v  6.2930 11.3511 1.1893
v  6.5493 11.1113 1.1893
v  6.7881 10.8672 1.1893
v  7.0091 10.6191 1.1893
v  7.2121 10.3673 1.1893
v  7.3967 10.1121 1.1893
v  7.5629 9.8539 1.1893
v  7.7103 9.5929 1.1893
v  7.8387 9.3295 1.1893
v  7.9480 9.0640 1.1893
v  8.0382 8.7968 1.1893
# 428 vertices

vn 0.0000 0.0000 1.0000
vn 0.0000 -0.7071 0.7071
vn 0.8944 0.0000 -0.4472
vn 1.0000 0.0000 -0.0000
vn 0.7071 -0.7071 -0.0000
vn 0.0000 0.0000 -1.0000
vn 0.0000 -0.7071 -0.7071
vn -1.0000 0.0000 -0.0000
vn -0.8944 0.0000 -0.4472
vn -0.7071 -0.7071 -0.0000
vn -0.6399 0.4224 -0.6420
vn -0.6395 0.4228 0.6421
vn -0.5501 0.6396 0.5369
vn -0.5510 0.6402 -0.5352
vn -0.7071 0.0000 0.7071
vn -0.6340 0.4400 0.6359
vn -0.6340 0.4400 -0.6359
vn 0.6340 0.4400 -0.6359
vn 0.7071 0.0000 0.7071
vn 0.6340 0.4400 0.6359
vn -0.5312 0.6696 0.5191
vn -0.5312 0.6696 -0.5191
vn 0.5312 0.6696 -0.5191
vn 0.5312 0.6696 0.5191
vn -0.6867 0.2317 0.6891
vn -0.6867 0.2317 -0.6891
vn 0.6867 0.2317 -0.6891
vn 0.6867 0.2317 0.6891
vn -0.6795 0.2907 0.6736
vn -0.6795 0.2907 -0.6736
vn 0.6795 0.2907 -0.6736
vn 0.6795 0.2907 0.6736
vn -0.6311 -0.4646 0.6212
vn -0.6311 -0.4646 -0.6212
vn 0.6311 -0.4646 -0.6212
vn 0.6311 -0.4646 0.6212
vn -0.6653 -0.3338 0.6678
vn -0.6653 -0.3338 -0.6678
vn 0.6653 -0.3338 -0.6678
vn 0.6653 -0.3338 0.6678
vn -0.6212 0.4755 0.6228
vn -0.6212 0.4755 -0.6228
vn 0.6212 0.4755 -0.6228
vn 0.6212 0.4755 0.6228
vn -0.4826 0.7381 0.4715
vn -0.4826 0.7381 -0.4715
vn 0.4826 0.7381 -0.4715
vn 0.4826 0.7381 0.4715
vn -0.7071 0.0000 -0.7071
vn 0.7071 0.0000 -0.7071
vn -0.3927 -0.8348 0.3859
vn -0.3927 -0.8348 -0.3859
vn 0.3927 -0.8348 -0.3859
vn 0.3927 -0.8348 0.3859
vn -0.5993 -0.5299 0.6001
vn -0.5993 -0.5299 -0.6001
vn 0.5993 -0.5299 -0.6001
vn 0.5993 -0.5299 0.6001
vn 0.6391 0.4256 -0.6407
vn 0.6387 0.4260 0.6408
vn -0.3428 0.6331 -0.6940
vn -0.3422 0.6336 0.6939
vn -0.1619 0.7322 0.6616
vn -0.1630 0.7323 -0.6612
vn 0.1914 -0.5913 -0.7834
vn -0.7105 0.0285 0.7031
vn -0.7104 0.0285 -0.7032
vn 0.1914 -0.5913 0.7834
vn -0.3855 0.5975 -0.7031
vn -0.4064 0.5835 -0.7031
vn 0.4220 -0.5623 -0.7111
vn -0.4268 0.5687 -0.7031
vn 0.4417 -0.5470 -0.7111
vn -0.4467 0.5532 -0.7032
vn 0.4608 -0.5310 -0.7111
vn -0.4661 0.5370 -0.7031
vn 0.4794 -0.5143 -0.7112
vn -0.4848 0.5201 -0.7031
vn 0.4973 -0.4970 -0.7111
vn -0.5030 0.5026 -0.7031
vn 0.5146 -0.4790 -0.7111
vn -0.5205 0.4844 -0.7031
vn 0.5313 -0.4605 -0.7111
vn -0.5373 0.4657 -0.7031
vn 0.5473 -0.4413 -0.7111
vn -0.5535 0.4463 -0.7031
vn 0.5626 -0.4216 -0.7111
vn -0.5690 0.4264 -0.7031
vn 0.5772 -0.4014 -0.7111
vn -0.5838 0.4060 -0.7031
vn 0.5911 -0.3807 -0.7111
vn -0.5978 0.3850 -0.7031
vn 0.6042 -0.3595 -0.7111
vn -0.6111 0.3636 -0.7031
vn 0.6166 -0.3378 -0.7111
vn -0.6236 0.3416 -0.7032
vn 0.6282 -0.3157 -0.7111
vn -0.6353 0.3193 -0.7031
vn 0.6390 -0.2933 -0.7111
vn -0.6462 0.2966 -0.7031
vn 0.6490 -0.2704 -0.7111
vn -0.6563 0.2735 -0.7032
vn 0.6582 -0.2472 -0.7111
vn -0.6656 0.2500 -0.7032
vn 0.6665 -0.2237 -0.7111
vn -0.6741 0.2263 -0.7031
vn 0.6740 -0.1999 -0.7112
vn -0.6817 0.2022 -0.7032
vn 0.6807 -0.1759 -0.7111
vn -0.6884 0.1779 -0.7032
vn 0.6865 -0.1516 -0.7112
vn -0.6943 0.1534 -0.7032
vn 0.6915 -0.1272 -0.7111
vn -0.6993 0.1286 -0.7031
vn 0.6955 -0.1026 -0.7111
vn -0.7034 0.1038 -0.7031
vn 0.6987 -0.0779 -0.7111
vn -0.7067 0.0787 -0.7031
vn 0.7011 -0.0530 -0.7111
vn -0.7090 0.0536 -0.7031
vn 0.7025 -0.0281 -0.7111
vn 0.5502 0.6374 -0.5394
vn -0.7090 0.0536 0.7031
vn -0.7067 0.0787 0.7031
vn 0.4220 -0.5623 0.7111
vn 0.4417 -0.5470 0.7111
vn 0.4608 -0.5309 0.7112
vn 0.4794 -0.5143 0.7111
vn 0.4973 -0.4970 0.7111
vn 0.5146 -0.4790 0.7111
vn 0.5313 -0.4605 0.7111
vn 0.5473 -0.4413 0.7111
vn 0.5626 -0.4216 0.7111
vn 0.5772 -0.4014 0.7111
vn 0.5911 -0.3807 0.7111
vn 0.6042 -0.3595 0.7111
vn 0.6166 -0.3378 0.7111
vn 0.6282 -0.3157 0.7111
vn 0.6390 -0.2933 0.7111
vn 0.6490 -0.2704 0.7111
vn 0.6582 -0.2472 0.7111
vn 0.6665 -0.2237 0.7112
vn 0.6740 -0.1999 0.7111
vn 0.6807 -0.1759 0.7112
vn 0.6865 -0.1516 0.7111
vn 0.6915 -0.1272 0.7111
vn 0.6955 -0.1026 0.7111
vn 0.6987 -0.0779 0.7111
vn 0.7011 -0.0530 0.7111
vn 0.7025 -0.0281 0.7111
vn 0.5493 0.6368 0.5411
vn -0.3855 0.5975 0.7031
vn -0.4064 0.5835 0.7031
vn -0.4268 0.5687 0.7031
vn -0.4467 0.5532 0.7031
vn -0.4661 0.5370 0.7032
vn -0.4848 0.5201 0.7031
vn -0.5030 0.5026 0.7031
vn -0.5205 0.4844 0.7031
vn -0.5373 0.4657 0.7031
vn -0.5535 0.4463 0.7031
vn -0.5690 0.4264 0.7031
vn -0.5838 0.4060 0.7031
vn -0.5978 0.3850 0.7031
vn -0.6111 0.3636 0.7031
vn -0.6236 0.3417 0.7031
vn -0.6353 0.3193 0.7032
vn -0.6462 0.2966 0.7031
vn -0.6564 0.2735 0.7031
vn -0.6656 0.2500 0.7032
vn -0.6741 0.2262 0.7032
vn -0.6817 0.2022 0.7031
vn -0.6884 0.1779 0.7032
vn -0.6943 0.1534 0.7032
vn -0.6993 0.1286 0.7032
vn -0.7034 0.1038 0.7031
vn 0.6399 0.4224 -0.6420
vn 0.5510 0.6402 -0.5352
vn 0.5501 0.6396 0.5369
vn 0.6395 0.4228 0.6421
vn -0.6391 0.4256 -0.6407
vn -0.6387 0.4260 0.6408
vn 0.3428 0.6331 -0.6940
vn 0.1630 0.7323 -0.6612
vn 0.1619 0.7322 0.6616
vn 0.3422 0.6336 0.6939
vn -0.1914 -0.5913 -0.7834
vn 0.7104 0.0285 -0.7032
vn 0.7105 0.0285 0.7031
vn -0.1914 -0.5913 0.7834
vn 0.3855 0.5975 -0.7031
vn 0.4064 0.5835 -0.7031
vn -0.4220 -0.5623 -0.7111
vn 0.4268 0.5687 -0.7031
vn -0.4417 -0.5470 -0.7111
vn 0.4467 0.5532 -0.7032
vn -0.4608 -0.5310 -0.7111
vn 0.4661 0.5370 -0.7031
vn -0.4794 -0.5143 -0.7112
vn 0.4848 0.5201 -0.7031
vn -0.4973 -0.4970 -0.7111
vn 0.5030 0.5026 -0.7031
vn -0.5146 -0.4790 -0.7111
vn 0.5205 0.4844 -0.7031
vn -0.5313 -0.4605 -0.7111
vn 0.5373 0.4657 -0.7031
vn -0.5473 -0.4413 -0.7111
vn 0.5535 0.4463 -0.7031
vn -0.5626 -0.4216 -0.7111
vn 0.5690 0.4264 -0.7031
vn -0.5772 -0.4014 -0.7111
vn 0.5838 0.4060 -0.7031
vn -0.5911 -0.3807 -0.7111
vn 0.5978 0.3850 -0.7031
vn -0.6042 -0.3595 -0.7111
vn 0.6111 0.3636 -0.7031
vn -0.6166 -0.3378 -0.7111
vn 0.6236 0.3416 -0.7032
vn -0.6282 -0.3157 -0.7111
vn 0.6353 0.3193 -0.7031
vn -0.6390 -0.2933 -0.7111
vn 0.6462 0.2966 -0.7031
vn -0.6490 -0.2704 -0.7111
vn 0.6563 0.2735 -0.7032
vn -0.6582 -0.2472 -0.7111
vn 0.6656 0.2500 -0.7032
vn -0.6665 -0.2237 -0.7111
vn 0.6741 0.2263 -0.7031
vn -0.6740 -0.1999 -0.7112
vn 0.6817 0.2022 -0.7032
vn -0.6807 -0.1759 -0.7111
vn 0.6884 0.1779 -0.7032
vn -0.6865 -0.1516 -0.7112
vn 0.6943 0.1534 -0.7032
vn -0.6915 -0.1272 -0.7111
vn 0.6993 0.1286 -0.7031
vn -0.6955 -0.1026 -0.7111
vn 0.7034 0.1038 -0.7031
vn -0.6987 -0.0779 -0.7111
vn 0.7067 0.0787 -0.7031
vn -0.7011 -0.0530 -0.7111
vn 0.7090 0.0536 -0.7031
vn -0.7025 -0.0281 -0.7111
vn -0.5502 0.6374 -0.5394
vn 0.7090 0.0536 0.7031
vn 0.7067 0.0787 0.7031
vn -0.4220 -0.5623 0.7111
vn -0.4417 -0.5470 0.7111
vn -0.4608 -0.5309 0.7112
vn -0.4794 -0.5143 0.7111
vn -0.4973 -0.4970 0.7111
vn -0.5146 -0.4790 0.7111
vn -0.5313 -0.4605 0.7111
vn -0.5473 -0.4413 0.7111
vn -0.5626 -0.4216 0.7111
vn -0.5772 -0.4014 0.7111
vn -0.5911 -0.3807 0.7111
vn -0.6042 -0.3595 0.7111
vn -0.6166 -0.3378 0.7111
vn -0.6282 -0.3157 0.7111
vn -0.6390 -0.2933 0.7111
vn -0.6490 -0.2704 0.7111
vn -0.6582 -0.2472 0.7111
vn -0.6665 -0.2237 0.7112
vn -0.6740 -0.1999 0.7111
vn -0.6807 -0.1759 0.7112
vn -0.6865 -0.1516 0.7111
vn -0.6915 -0.1272 0.7111
vn -0.6955 -0.1026 0.7111
vn -0.6987 -0.0779 0.7111
vn -0.7011 -0.0530 0.7111
vn -0.7025 -0.0281 0.7111
vn -0.5493 0.6368 0.5411
vn 0.3855 0.5975 0.7031
vn 0.4064 0.5835 0.7031
vn 0.4268 0.5687 0.7031
vn 0.4467 0.5532 0.7031
vn 0.4661 0.5370 0.7032
vn 0.4848 0.5201 0.7031
vn 0.5030 0.5026 0.7031
vn 0.5205 0.4844 0.7031
vn 0.5373 0.4657 0.7031
vn 0.5535 0.4463 0.7031
vn 0.5690 0.4264 0.7031
vn 0.5838 0.4060 0.7031
vn 0.5978 0.3850 0.7031
vn 0.6111 0.3636 0.7031
vn 0.6236 0.3417 0.7031
vn 0.6353 0.3193 0.7032
vn 0.6462 0.2966 0.7031
vn 0.6564 0.2735 0.7031
vn 0.6656 0.2500 0.7032
vn 0.6741 0.2262 0.7032
vn 0.6817 0.2022 0.7031
vn 0.6884 0.1779 0.7032
vn 0.6943 0.1534 0.7032
vn 0.6993 0.1286 0.7032
vn 0.7034 0.1038 0.7031
# 298 vertex normals

vt 1.0000 1.0000 0.0000
vt 0.0000 1.0000 0.0000
vt 0.0000 0.0000 0.0000
vt 1.0000 0.0000 0.0000
# 4 texture coords

o Cube
g Cube
usemtl 01___Default
s 1
f 1/1/1 2/2/1 3/3/1 
f 4/4/2 1/1/1 3/3/1 
f 5/1/3 1/2/4 4/3/4 
f 6/4/5 5/1/3 4/3/4 
f 7/1/6 5/2/6 6/3/6 
f 8/4/7 7/1/6 6/3/6 
f 2/1/8 7/2/9 8/3/8 
f 3/4/10 2/1/8 8/3/8 
f 9/2/11 10/3/12 11/3/13 
f 12/2/14 9/2/11 11/3/13 
f 7/2/9 2/3/15 13/3/16 
f 14/2/17 7/2/9 13/3/16 
f 5/1/3 7/2/9 14/2/17 
f 15/1/18 5/1/3 14/2/17 
f 1/4/19 5/1/3 15/1/18 
f 16/4/20 1/4/19 15/1/18 
f 2/3/15 1/4/19 16/4/20 
f 13/3/16 2/3/15 16/4/20 
f 14/2/17 13/3/16 17/3/21 
f 18/2/22 14/2/17 17/3/21 
f 15/1/18 14/2/17 18/2/22 
f 19/1/23 15/1/18 18/2/22 
f 16/4/20 15/1/18 19/1/23 
f 20/4/24 16/4/20 19/1/23 
f 13/3/16 16/4/20 20/4/24 
f 17/3/21 13/3/16 20/4/24 
f 18/2/22 17/3/21 21/3/25 
f 22/2/26 18/2/22 21/3/25 
f 19/1/23 18/2/22 22/2/26 
f 23/1/27 19/1/23 22/2/26 
f 20/4/24 19/1/23 23/1/27 
f 24/4/28 20/4/24 23/1/27 
f 17/3/21 20/4/24 24/4/28 
f 21/3/25 17/3/21 24/4/28 
f 22/2/26 21/3/25 25/3/29 
f 26/2/30 22/2/26 25/3/29 
f 23/1/27 22/2/26 26/2/30 
f 27/1/31 23/1/27 26/2/30 
f 24/4/28 23/1/27 27/1/31 
f 28/4/32 24/4/28 27/1/31 
f 21/3/25 24/4/28 28/4/32 
f 25/3/29 21/3/25 28/4/32 
f 26/2/30 25/3/29 29/3/33 
f 30/2/34 26/2/30 29/3/33 
f 27/1/31 26/2/30 30/2/34 
f 31/1/35 27/1/31 30/2/34 
f 28/4/32 27/1/31 31/1/35 
f 32/4/36 28/4/32 31/1/35 
f 25/3/29 28/4/32 32/4/36 
f 29/3/33 25/3/29 32/4/36 
f 30/2/34 29/3/33 33/3/37 
f 34/2/38 30/2/34 33/3/37 
f 31/1/35 30/2/34 34/2/38 
f 35/1/39 31/1/35 34/2/38 
f 32/4/36 31/1/35 35/1/39 
f 36/4/40 32/4/36 35/1/39 
f 29/3/33 32/4/36 36/4/40 
f 33/3/37 29/3/33 36/4/40 
f 34/2/38 33/3/37 37/3/41 
f 38/2/42 34/2/38 37/3/41 
f 35/1/39 34/2/38 38/2/42 
f 39/1/43 35/1/39 38/2/42 
f 36/4/40 35/1/39 39/1/43 
f 40/4/44 36/4/40 39/1/43 
f 33/3/37 36/4/40 40/4/44 
f 37/3/41 33/3/37 40/4/44 
f 38/2/42 37/3/41 41/3/45 
f 42/2/46 38/2/42 41/3/45 
f 39/1/43 38/2/42 42/2/46 
f 43/1/47 39/1/43 42/2/46 
f 40/4/44 39/1/43 43/1/47 
f 44/4/48 40/4/44 43/1/47 
f 37/3/41 40/4/44 44/4/48 
f 41/3/45 37/3/41 44/4/48 
f 42/2/46 41/3/45 45/3/15 
f 46/2/49 42/2/46 45/3/15 
f 43/1/47 42/2/46 46/2/49 
f 47/1/50 43/1/47 46/2/49 
f 44/4/48 43/1/47 47/1/50 
f 48/4/19 44/4/48 47/1/50 
f 41/3/45 44/4/48 48/4/19 
f 45/3/15 41/3/45 48/4/19 
f 46/2/49 45/3/15 49/3/15 
f 50/2/49 46/2/49 49/3/15 
f 47/1/50 46/2/49 50/2/49 
f 51/1/50 47/1/50 50/2/49 
f 48/4/19 47/1/50 51/1/50 
f 52/4/19 48/4/19 51/1/50 
f 45/3/15 48/4/19 52/4/19 
f 49/3/15 45/3/15 52/4/19 
f 50/2/49 49/3/15 53/3/15 
f 54/2/49 50/2/49 53/3/15 
f 51/1/50 50/2/49 54/2/49 
f 55/1/50 51/1/50 54/2/49 
f 52/4/19 51/1/50 55/1/50 
f 56/4/19 52/4/19 55/1/50 
f 49/3/15 52/4/19 56/4/19 
f 53/3/15 49/3/15 56/4/19 
f 54/2/49 53/3/15 57/3/15 
f 58/2/49 54/2/49 57/3/15 
f 55/1/50 54/2/49 58/2/49 
f 59/1/50 55/1/50 58/2/49 
f 56/4/19 55/1/50 59/1/50 
f 60/4/19 56/4/19 59/1/50 
f 53/3/15 56/4/19 60/4/19 
f 57/3/15 53/3/15 60/4/19 
f 58/2/49 57/3/15 61/3/15 
f 62/2/49 58/2/49 61/3/15 
f 59/1/50 58/2/49 62/2/49 
f 63/1/50 59/1/50 62/2/49 
f 60/4/19 59/1/50 63/1/50 
f 64/4/19 60/4/19 63/1/50 
f 57/3/15 60/4/19 64/4/19 
f 61/3/15 57/3/15 64/4/19 
f 62/2/49 61/3/15 65/3/15 
f 66/2/49 62/2/49 65/3/15 
f 63/1/50 62/2/49 66/2/49 
f 67/1/50 63/1/50 66/2/49 
f 64/4/19 63/1/50 67/1/50 
f 68/4/19 64/4/19 67/1/50 
f 61/3/15 64/4/19 68/4/19 
f 65/3/15 61/3/15 68/4/19 
f 66/2/49 65/3/15 69/3/15 
f 70/2/49 66/2/49 69/3/15 
f 67/1/50 66/2/49 70/2/49 
f 71/1/50 67/1/50 70/2/49 
f 68/4/19 67/1/50 71/1/50 
f 72/4/19 68/4/19 71/1/50 
f 65/3/15 68/4/19 72/4/19 
f 69/3/15 65/3/15 72/4/19 
f 70/2/49 69/3/15 73/3/15 
f 74/2/49 70/2/49 73/3/15 
f 71/1/50 70/2/49 74/2/49 
f 75/1/50 71/1/50 74/2/49 
f 72/4/19 71/1/50 75/1/50 
f 76/4/19 72/4/19 75/1/50 
f 69/3/15 72/4/19 76/4/19 
f 73/3/15 69/3/15 76/4/19 
f 74/2/49 73/3/15 77/3/15 
f 78/2/49 74/2/49 77/3/15 
f 75/1/50 74/2/49 78/2/49 
f 79/1/50 75/1/50 78/2/49 
f 76/4/19 75/1/50 79/1/50 
f 80/4/19 76/4/19 79/1/50 
f 73/3/15 76/4/19 80/4/19 
f 77/3/15 73/3/15 80/4/19 
f 78/2/49 77/3/15 81/3/15 
f 82/2/49 78/2/49 81/3/15 
f 79/1/50 78/2/49 82/2/49 
f 83/1/50 79/1/50 82/2/49 
f 80/4/19 79/1/50 83/1/50 
f 84/4/19 80/4/19 83/1/50 
f 77/3/15 80/4/19 84/4/19 
f 81/3/15 77/3/15 84/4/19 
f 82/2/49 81/3/15 85/3/15 
f 86/2/49 82/2/49 85/3/15 
f 83/1/50 82/2/49 86/2/49 
f 87/1/50 83/1/50 86/2/49 
f 84/4/19 83/1/50 87/1/50 
f 88/4/19 84/4/19 87/1/50 
f 81/3/15 84/4/19 88/4/19 
f 85/3/15 81/3/15 88/4/19 
f 86/2/49 85/3/15 89/3/51 
f 90/2/52 86/2/49 89/3/51 
f 87/1/50 86/2/49 90/2/52 
f 91/1/53 87/1/50 90/2/52 
f 88/4/19 87/1/50 91/1/53 
f 92/4/54 88/4/19 91/1/53 
f 85/3/15 88/4/19 92/4/54 
f 89/3/51 85/3/15 92/4/54 
f 90/2/52 89/3/51 93/3/55 
f 94/2/56 90/2/52 93/3/55 
f 91/1/53 90/2/52 94/2/56 
f 95/1/57 91/1/53 94/2/56 
f 92/4/54 91/1/53 95/1/57 
f 96/4/58 92/4/54 95/1/57 
f 89/3/51 92/4/54 96/4/58 
f 93/3/55 89/3/51 96/4/58 
f 94/2/56 93/3/55 10/3/12 
f 9/2/11 94/2/56 10/3/12 
f 95/1/57 94/2/56 9/2/11 
f 97/1/59 95/1/57 9/2/11 
f 96/4/58 95/1/57 97/1/59 
f 98/4/60 96/4/58 97/1/59 
f 93/3/55 96/4/58 98/4/60 
f 10/3/12 93/3/55 98/4/60 
f 99/2/61 100/3/62 101/3/63 
f 102/2/64 99/2/61 101/3/63 
f 103/1/65 99/2/61 102/2/64 
f 12/2/14 11/3/13 104/3/66 
f 105/2/67 12/2/14 104/3/66 
f 101/3/63 100/3/62 106/4/68 
f 103/1/65 107/2/69 99/2/61 
f 103/1/65 108/2/70 107/2/69 
f 109/1/71 110/2/72 108/2/70 
f 103/1/65 109/1/71 108/2/70 
f 111/1/73 112/2/74 110/2/72 
f 109/1/71 111/1/73 110/2/72 
f 113/1/75 114/2/76 112/2/74 
f 111/1/73 113/1/75 112/2/74 
f 115/1/77 116/2/78 114/2/76 
f 113/1/75 115/1/77 114/2/76 
f 117/1/79 118/2/80 116/2/78 
f 115/1/77 117/1/79 116/2/78 
f 119/1/81 120/2/82 118/2/80 
f 117/1/79 119/1/81 118/2/80 
f 121/1/83 122/2/84 120/2/82 
f 119/1/81 121/1/83 120/2/82 
f 123/1/85 124/2/86 122/2/84 
f 121/1/83 123/1/85 122/2/84 
f 125/1/87 126/2/88 124/2/86 
f 123/1/85 125/1/87 124/2/86 
f 127/1/89 128/2/90 126/2/88 
f 125/1/87 127/1/89 126/2/88 
f 129/1/91 130/2/92 128/2/90 
f 127/1/89 129/1/91 128/2/90 
f 131/1/93 132/2/94 130/2/92 
f 129/1/91 131/1/93 130/2/92 
f 133/1/95 134/2/96 132/2/94 
f 131/1/93 133/1/95 132/2/94 
f 135/1/97 136/2/98 134/2/96 
f 133/1/95 135/1/97 134/2/96 
f 137/1/99 138/2/100 136/2/98 
f 135/1/97 137/1/99 136/2/98 
f 139/1/101 140/2/102 138/2/100 
f 137/1/99 139/1/101 138/2/100 
f 141/1/103 142/2/104 140/2/102 
f 139/1/101 141/1/103 140/2/102 
f 143/1/105 144/2/106 142/2/104 
f 141/1/103 143/1/105 142/2/104 
f 145/1/107 146/2/108 144/2/106 
f 143/1/105 145/1/107 144/2/106 
f 147/1/109 148/2/110 146/2/108 
f 145/1/107 147/1/109 146/2/108 
f 149/1/111 150/2/112 148/2/110 
f 147/1/109 149/1/111 148/2/110 
f 151/1/113 152/2/114 150/2/112 
f 149/1/111 151/1/113 150/2/112 
f 153/1/115 154/2/116 152/2/114 
f 151/1/113 153/1/115 152/2/114 
f 155/1/117 156/2/118 154/2/116 
f 153/1/115 155/1/117 154/2/116 
f 157/1/119 158/2/120 156/2/118 
f 155/1/117 157/1/119 156/2/118 
f 159/1/121 105/2/67 158/2/120 
f 157/1/119 159/1/121 158/2/120 
f 160/1/122 12/2/14 105/2/67 
f 159/1/121 160/1/122 105/2/67 
f 97/1/59 9/2/11 12/2/14 
f 160/1/122 97/1/59 12/2/14 
f 105/2/67 104/3/66 161/3/123 
f 158/2/120 105/2/67 161/3/123 
f 158/2/120 161/3/123 162/3/124 
f 156/2/118 158/2/120 162/3/124 
f 163/4/125 109/1/71 103/1/65 
f 106/4/68 163/4/125 103/1/65 
f 164/4/126 111/1/73 109/1/71 
f 163/4/125 164/4/126 109/1/71 
f 165/4/127 113/1/75 111/1/73 
f 164/4/126 165/4/127 111/1/73 
f 166/4/128 115/1/77 113/1/75 
f 165/4/127 166/4/128 113/1/75 
f 167/4/129 117/1/79 115/1/77 
f 166/4/128 167/4/129 115/1/77 
f 168/4/130 119/1/81 117/1/79 
f 167/4/129 168/4/130 117/1/79 
f 169/4/131 121/1/83 119/1/81 
f 168/4/130 169/4/131 119/1/81 
f 170/4/132 123/1/85 121/1/83 
f 169/4/131 170/4/132 121/1/83 
f 171/4/133 125/1/87 123/1/85 
f 170/4/132 171/4/133 123/1/85 
f 172/4/134 127/1/89 125/1/87 
f 171/4/133 172/4/134 125/1/87 
f 173/4/135 129/1/91 127/1/89 
f 172/4/134 173/4/135 127/1/89 
f 174/4/136 131/1/93 129/1/91 
f 173/4/135 174/4/136 129/1/91 
f 175/4/137 133/1/95 131/1/93 
f 174/4/136 175/4/137 131/1/93 
f 176/4/138 135/1/97 133/1/95 
f 175/4/137 176/4/138 133/1/95 
f 177/4/139 137/1/99 135/1/97 
f 176/4/138 177/4/139 135/1/97 
f 178/4/140 139/1/101 137/1/99 
f 177/4/139 178/4/140 137/1/99 
f 179/4/141 141/1/103 139/1/101 
f 178/4/140 179/4/141 139/1/101 
f 180/4/142 143/1/105 141/1/103 
f 179/4/141 180/4/142 141/1/103 
f 181/4/143 145/1/107 143/1/105 
f 180/4/142 181/4/143 143/1/105 
f 182/4/144 147/1/109 145/1/107 
f 181/4/143 182/4/144 145/1/107 
f 183/4/145 149/1/111 147/1/109 
f 182/4/144 183/4/145 147/1/109 
f 184/4/146 151/1/113 149/1/111 
f 183/4/145 184/4/146 149/1/111 
f 185/4/147 153/1/115 151/1/113 
f 184/4/146 185/4/147 151/1/113 
f 186/4/148 155/1/117 153/1/115 
f 185/4/147 186/4/148 153/1/115 
f 187/4/149 157/1/119 155/1/117 
f 186/4/148 187/4/149 155/1/117 
f 188/4/150 159/1/121 157/1/119 
f 187/4/149 188/4/150 157/1/119 
f 189/4/151 160/1/122 159/1/121 
f 188/4/150 189/4/151 159/1/121 
f 98/4/60 97/1/59 160/1/122 
f 189/4/151 98/4/60 160/1/122 
f 100/3/62 190/3/152 106/4/68 
f 190/3/152 191/3/153 106/4/68 
f 192/3/154 163/4/125 106/4/68 
f 191/3/153 192/3/154 106/4/68 
f 193/3/155 164/4/126 163/4/125 
f 192/3/154 193/3/155 163/4/125 
f 194/3/156 165/4/127 164/4/126 
f 193/3/155 194/3/156 164/4/126 
f 195/3/157 166/4/128 165/4/127 
f 194/3/156 195/3/157 165/4/127 
f 196/3/158 167/4/129 166/4/128 
f 195/3/157 196/3/158 166/4/128 
f 197/3/159 168/4/130 167/4/129 
f 196/3/158 197/3/159 167/4/129 
f 198/3/160 169/4/131 168/4/130 
f 197/3/159 198/3/160 168/4/130 
f 199/3/161 170/4/132 169/4/131 
f 198/3/160 199/3/161 169/4/131 
f 200/3/162 171/4/133 170/4/132 
f 199/3/161 200/3/162 170/4/132 
f 201/3/163 172/4/134 171/4/133 
f 200/3/162 201/3/163 171/4/133 
f 202/3/164 173/4/135 172/4/134 
f 201/3/163 202/3/164 172/4/134 
f 203/3/165 174/4/136 173/4/135 
f 202/3/164 203/3/165 173/4/135 
f 204/3/166 175/4/137 174/4/136 
f 203/3/165 204/3/166 174/4/136 
f 205/3/167 176/4/138 175/4/137 
f 204/3/166 205/3/167 175/4/137 
f 206/3/168 177/4/139 176/4/138 
f 205/3/167 206/3/168 176/4/138 
f 207/3/169 178/4/140 177/4/139 
f 206/3/168 207/3/169 177/4/139 
f 208/3/170 179/4/141 178/4/140 
f 207/3/169 208/3/170 178/4/140 
f 209/3/171 180/4/142 179/4/141 
f 208/3/170 209/3/171 179/4/141 
f 210/3/172 181/4/143 180/4/142 
f 209/3/171 210/3/172 180/4/142 
f 211/3/173 182/4/144 181/4/143 
f 210/3/172 211/3/173 181/4/143 
f 212/3/174 183/4/145 182/4/144 
f 211/3/173 212/3/174 182/4/144 
f 213/3/175 184/4/146 183/4/145 
f 212/3/174 213/3/175 183/4/145 
f 214/3/176 185/4/147 184/4/146 
f 213/3/175 214/3/176 184/4/146 
f 162/3/124 186/4/148 185/4/147 
f 214/3/176 162/3/124 185/4/147 
f 161/3/123 187/4/149 186/4/148 
f 162/3/124 161/3/123 186/4/148 
f 104/3/66 188/4/150 187/4/149 
f 161/3/123 104/3/66 187/4/149 
f 11/3/13 189/4/151 188/4/150 
f 104/3/66 11/3/13 188/4/150 
f 10/3/12 98/4/60 189/4/151 
f 11/3/13 10/3/12 189/4/151 
f 107/2/69 190/3/152 100/3/62 
f 99/2/61 107/2/69 100/3/62 
f 108/2/70 191/3/153 190/3/152 
f 107/2/69 108/2/70 190/3/152 
f 110/2/72 192/3/154 191/3/153 
f 108/2/70 110/2/72 191/3/153 
f 112/2/74 193/3/155 192/3/154 
f 110/2/72 112/2/74 192/3/154 
f 114/2/76 194/3/156 193/3/155 
f 112/2/74 114/2/76 193/3/155 
f 116/2/78 195/3/157 194/3/156 
f 114/2/76 116/2/78 194/3/156 
f 118/2/80 196/3/158 195/3/157 
f 116/2/78 118/2/80 195/3/157 
f 120/2/82 197/3/159 196/3/158 
f 118/2/80 120/2/82 196/3/158 
f 122/2/84 198/3/160 197/3/159 
f 120/2/82 122/2/84 197/3/159 
f 124/2/86 199/3/161 198/3/160 
f 122/2/84 124/2/86 198/3/160 
f 126/2/88 200/3/162 199/3/161 
f 124/2/86 126/2/88 199/3/161 
f 128/2/90 201/3/163 200/3/162 
f 126/2/88 128/2/90 200/3/162 
f 130/2/92 202/3/164 201/3/163 
f 128/2/90 130/2/92 201/3/163 
f 132/2/94 203/3/165 202/3/164 
f 130/2/92 132/2/94 202/3/164 
f 134/2/96 204/3/166 203/3/165 
f 132/2/94 134/2/96 203/3/165 
f 136/2/98 205/3/167 204/3/166 
f 134/2/96 136/2/98 204/3/166 
f 138/2/100 206/3/168 205/3/167 
f 136/2/98 138/2/100 205/3/167 
f 140/2/102 207/3/169 206/3/168 
f 138/2/100 140/2/102 206/3/168 
f 142/2/104 208/3/170 207/3/169 
f 140/2/102 142/2/104 207/3/169 
f 144/2/106 209/3/171 208/3/170 
f 142/2/104 144/2/106 208/3/170 
f 146/2/108 210/3/172 209/3/171 
f 144/2/106 146/2/108 209/3/171 
f 148/2/110 211/3/173 210/3/172 
f 146/2/108 148/2/110 210/3/172 
f 150/2/112 212/3/174 211/3/173 
f 148/2/110 150/2/112 211/3/173 
f 152/2/114 213/3/175 212/3/174 
f 150/2/112 152/2/114 212/3/174 
f 154/2/116 214/3/176 213/3/175 
f 152/2/114 154/2/116 213/3/175 
f 156/2/118 162/3/124 214/3/176 
f 154/2/116 156/2/118 214/3/176 
f 215/1/1 216/4/2 217/3/1 
f 218/2/1 215/1/1 217/3/1 
f 219/1/9 220/4/10 216/3/8 
f 215/2/8 219/1/9 216/3/8 
f 221/1/6 222/4/7 220/3/6 
f 219/2/6 221/1/6 220/3/6 
f 218/1/4 217/4/5 222/3/4 
f 221/2/3 218/1/4 222/3/4 
f 223/2/177 224/2/178 225/3/179 
f 226/3/180 223/2/177 225/3/179 
f 221/2/3 227/2/18 228/3/20 
f 218/3/19 221/2/3 228/3/20 
f 219/1/9 229/1/17 227/2/18 
f 221/2/3 219/1/9 227/2/18 
f 215/4/15 230/4/16 229/1/17 
f 219/1/9 215/4/15 229/1/17 
f 218/3/19 228/3/20 230/4/16 
f 215/4/15 218/3/19 230/4/16 
f 227/2/18 231/2/23 232/3/24 
f 228/3/20 227/2/18 232/3/24 
f 229/1/17 233/1/22 231/2/23 
f 227/2/18 229/1/17 231/2/23 
f 230/4/16 234/4/21 233/1/22 
f 229/1/17 230/4/16 233/1/22 
f 228/3/20 232/3/24 234/4/21 
f 230/4/16 228/3/20 234/4/21 
f 231/2/23 235/2/27 236/3/28 
f 232/3/24 231/2/23 236/3/28 
f 233/1/22 237/1/26 235/2/27 
f 231/2/23 233/1/22 235/2/27 
f 234/4/21 238/4/25 237/1/26 
f 233/1/22 234/4/21 237/1/26 
f 232/3/24 236/3/28 238/4/25 
f 234/4/21 232/3/24 238/4/25 
f 235/2/27 239/2/31 240/3/32 
f 236/3/28 235/2/27 240/3/32 
f 237/1/26 241/1/30 239/2/31 
f 235/2/27 237/1/26 239/2/31 
f 238/4/25 242/4/29 241/1/30 
f 237/1/26 238/4/25 241/1/30 
f 236/3/28 240/3/32 242/4/29 
f 238/4/25 236/3/28 242/4/29 
f 239/2/31 243/2/35 244/3/36 
f 240/3/32 239/2/31 244/3/36 
f 241/1/30 245/1/34 243/2/35 
f 239/2/31 241/1/30 243/2/35 
f 242/4/29 246/4/33 245/1/34 
f 241/1/30 242/4/29 245/1/34 
f 240/3/32 244/3/36 246/4/33 
f 242/4/29 240/3/32 246/4/33 
f 243/2/35 247/2/39 248/3/40 
f 244/3/36 243/2/35 248/3/40 
f 245/1/34 249/1/38 247/2/39 
f 243/2/35 245/1/34 247/2/39 
f 246/4/33 250/4/37 249/1/38 
f 245/1/34 246/4/33 249/1/38 
f 244/3/36 248/3/40 250/4/37 
f 246/4/33 244/3/36 250/4/37 
f 247/2/39 251/2/43 252/3/44 
f 248/3/40 247/2/39 252/3/44 
f 249/1/38 253/1/42 251/2/43 
f 247/2/39 249/1/38 251/2/43 
f 250/4/37 254/4/41 253/1/42 
f 249/1/38 250/4/37 253/1/42 
f 248/3/40 252/3/44 254/4/41 
f 250/4/37 248/3/40 254/4/41 
f 251/2/43 255/2/47 256/3/48 
f 252/3/44 251/2/43 256/3/48 
f 253/1/42 257/1/46 255/2/47 
f 251/2/43 253/1/42 255/2/47 
f 254/4/41 258/4/45 257/1/46 
f 253/1/42 254/4/41 257/1/46 
f 252/3/44 256/3/48 258/4/45 
f 254/4/41 252/3/44 258/4/45 
f 255/2/47 259/2/50 260/3/19 
f 256/3/48 255/2/47 260/3/19 
f 257/1/46 261/1/49 259/2/50 
f 255/2/47 257/1/46 259/2/50 
f 258/4/45 262/4/15 261/1/49 
f 257/1/46 258/4/45 261/1/49 
f 256/3/48 260/3/19 262/4/15 
f 258/4/45 256/3/48 262/4/15 
f 259/2/50 263/2/50 264/3/19 
f 260/3/19 259/2/50 264/3/19 
f 261/1/49 265/1/49 263/2/50 
f 259/2/50 261/1/49 263/2/50 
f 262/4/15 266/4/15 265/1/49 
f 261/1/49 262/4/15 265/1/49 
f 260/3/19 264/3/19 266/4/15 
f 262/4/15 260/3/19 266/4/15 
f 263/2/50 267/2/50 268/3/19 
f 264/3/19 263/2/50 268/3/19 
f 265/1/49 269/1/49 267/2/50 
f 263/2/50 265/1/49 267/2/50 
f 266/4/15 270/4/15 269/1/49 
f 265/1/49 266/4/15 269/1/49 
f 264/3/19 268/3/19 270/4/15 
f 266/4/15 264/3/19 270/4/15 
f 267/2/50 271/2/50 272/3/19 
f 268/3/19 267/2/50 272/3/19 
f 269/1/49 273/1/49 271/2/50 
f 267/2/50 269/1/49 271/2/50 
f 270/4/15 274/4/15 273/1/49 
f 269/1/49 270/4/15 273/1/49 
f 268/3/19 272/3/19 274/4/15 
f 270/4/15 268/3/19 274/4/15 
f 271/2/50 275/2/50 276/3/19 
f 272/3/19 271/2/50 276/3/19 
f 273/1/49 277/1/49 275/2/50 
f 271/2/50 273/1/49 275/2/50 
f 274/4/15 278/4/15 277/1/49 
f 273/1/49 274/4/15 277/1/49 
f 272/3/19 276/3/19 278/4/15 
f 274/4/15 272/3/19 278/4/15 
f 275/2/50 279/2/50 280/3/19 
f 276/3/19 275/2/50 280/3/19 
f 277/1/49 281/1/49 279/2/50 
f 275/2/50 277/1/49 279/2/50 
f 278/4/15 282/4/15 281/1/49 
f 277/1/49 278/4/15 281/1/49 
f 276/3/19 280/3/19 282/4/15 
f 278/4/15 276/3/19 282/4/15 
f 279/2/50 283/2/50 284/3/19 
f 280/3/19 279/2/50 284/3/19 
f 281/1/49 285/1/49 283/2/50 
f 279/2/50 281/1/49 283/2/50 
f 282/4/15 286/4/15 285/1/49 
f 281/1/49 282/4/15 285/1/49 
f 280/3/19 284/3/19 286/4/15 
f 282/4/15 280/3/19 286/4/15 
f 283/2/50 287/2/50 288/3/19 
f 284/3/19 283/2/50 288/3/19 
f 285/1/49 289/1/49 287/2/50 
f 283/2/50 285/1/49 287/2/50 
f 286/4/15 290/4/15 289/1/49 
f 285/1/49 286/4/15 289/1/49 
f 284/3/19 288/3/19 290/4/15 
f 286/4/15 284/3/19 290/4/15 
f 287/2/50 291/2/50 292/3/19 
f 288/3/19 287/2/50 292/3/19 
f 289/1/49 293/1/49 291/2/50 
f 287/2/50 289/1/49 291/2/50 
f 290/4/15 294/4/15 293/1/49 
f 289/1/49 290/4/15 293/1/49 
f 288/3/19 292/3/19 294/4/15 
f 290/4/15 288/3/19 294/4/15 
f 291/2/50 295/2/50 296/3/19 
f 292/3/19 291/2/50 296/3/19 
f 293/1/49 297/1/49 295/2/50 
f 291/2/50 293/1/49 295/2/50 
f 294/4/15 298/4/15 297/1/49 
f 293/1/49 294/4/15 297/1/49 
f 292/3/19 296/3/19 298/4/15 
f 294/4/15 292/3/19 298/4/15 
f 295/2/50 299/2/50 300/3/19 
f 296/3/19 295/2/50 300/3/19 
f 297/1/49 301/1/49 299/2/50 
f 295/2/50 297/1/49 299/2/50 
f 298/4/15 302/4/15 301/1/49 
f 297/1/49 298/4/15 301/1/49 
f 296/3/19 300/3/19 302/4/15 
f 298/4/15 296/3/19 302/4/15 
f 299/2/50 303/2/53 304/3/54 
f 300/3/19 299/2/50 304/3/54 
f 301/1/49 305/1/52 303/2/53 
f 299/2/50 301/1/49 303/2/53 
f 302/4/15 306/4/51 305/1/52 
f 301/1/49 302/4/15 305/1/52 
f 300/3/19 304/3/54 306/4/51 
f 302/4/15 300/3/19 306/4/51 
f 303/2/53 307/2/57 308/3/58 
f 304/3/54 303/2/53 308/3/58 
f 305/1/52 309/1/56 307/2/57 
f 303/2/53 305/1/52 307/2/57 
f 306/4/51 310/4/55 309/1/56 
f 305/1/52 306/4/51 309/1/56 
f 304/3/54 308/3/58 310/4/55 
f 306/4/51 304/3/54 310/4/55 
f 307/2/57 223/2/177 226/3/180 
f 308/3/58 307/2/57 226/3/180 
f 309/1/56 311/1/181 223/2/177 
f 307/2/57 309/1/56 223/2/177 
f 310/4/55 312/4/182 311/1/181 
f 309/1/56 310/4/55 311/1/181 
f 308/3/58 226/3/180 312/4/182 
f 310/4/55 308/3/58 312/4/182 
f 313/2/183 314/2/184 315/3/185 
f 316/3/186 313/2/183 315/3/185 
f 313/2/183 317/1/187 314/2/184 
f 224/2/178 318/2/188 319/3/189 
f 225/3/179 224/2/178 319/3/189 
f 316/3/186 315/3/185 320/4/190 
f 321/2/191 317/1/187 313/2/183 
f 322/2/192 317/1/187 321/2/191 
f 323/1/193 317/1/187 322/2/192 
f 324/2/194 323/1/193 322/2/192 
f 325/1/195 323/1/193 324/2/194 
f 326/2/196 325/1/195 324/2/194 
f 327/1/197 325/1/195 326/2/196 
f 328/2/198 327/1/197 326/2/196 
f 329/1/199 327/1/197 328/2/198 
f 330/2/200 329/1/199 328/2/198 
f 331/1/201 329/1/199 330/2/200 
f 332/2/202 331/1/201 330/2/200 
f 333/1/203 331/1/201 332/2/202 
f 334/2/204 333/1/203 332/2/202 
f 335/1/205 333/1/203 334/2/204 
f 336/2/206 335/1/205 334/2/204 
f 337/1/207 335/1/205 336/2/206 
f 338/2/208 337/1/207 336/2/206 
f 339/1/209 337/1/207 338/2/208 
f 340/2/210 339/1/209 338/2/208 
f 341/1/211 339/1/209 340/2/210 
f 342/2/212 341/1/211 340/2/210 
f 343/1/213 341/1/211 342/2/212 
f 344/2/214 343/1/213 342/2/212 
f 345/1/215 343/1/213 344/2/214 
f 346/2/216 345/1/215 344/2/214 
f 347/1/217 345/1/215 346/2/216 
f 348/2/218 347/1/217 346/2/216 
f 349/1/219 347/1/217 348/2/218 
f 350/2/220 349/1/219 348/2/218 
f 351/1/221 349/1/219 350/2/220 
f 352/2/222 351/1/221 350/2/220 
f 353/1/223 351/1/221 352/2/222 
f 354/2/224 353/1/223 352/2/222 
f 355/1/225 353/1/223 354/2/224 
f 356/2/226 355/1/225 354/2/224 
f 357/1/227 355/1/225 356/2/226 
f 358/2/228 357/1/227 356/2/226 
f 359/1/229 357/1/227 358/2/228 
f 360/2/230 359/1/229 358/2/228 
f 361/1/231 359/1/229 360/2/230 
f 362/2/232 361/1/231 360/2/230 
f 363/1/233 361/1/231 362/2/232 
f 364/2/234 363/1/233 362/2/232 
f 365/1/235 363/1/233 364/2/234 
f 366/2/236 365/1/235 364/2/234 
f 367/1/237 365/1/235 366/2/236 
f 368/2/238 367/1/237 366/2/236 
f 369/1/239 367/1/237 368/2/238 
f 370/2/240 369/1/239 368/2/238 
f 371/1/241 369/1/239 370/2/240 
f 372/2/242 371/1/241 370/2/240 
f 373/1/243 371/1/241 372/2/242 
f 318/2/188 373/1/243 372/2/242 
f 374/1/244 373/1/243 318/2/188 
f 224/2/178 374/1/244 318/2/188 
f 311/1/181 374/1/244 224/2/178 
f 223/2/177 311/1/181 224/2/178 
f 318/2/188 372/2/242 375/3/245 
f 319/3/189 318/2/188 375/3/245 
f 372/2/242 370/2/240 376/3/246 
f 375/3/245 372/2/242 376/3/246 
f 377/4/247 320/4/190 317/1/187 
f 323/1/193 377/4/247 317/1/187 
f 378/4/248 377/4/247 323/1/193 
f 325/1/195 378/4/248 323/1/193 
f 379/4/249 378/4/248 325/1/195 
f 327/1/197 379/4/249 325/1/195 
f 380/4/250 379/4/249 327/1/197 
f 329/1/199 380/4/250 327/1/197 
f 381/4/251 380/4/250 329/1/199 
f 331/1/201 381/4/251 329/1/199 
f 382/4/252 381/4/251 331/1/201 
f 333/1/203 382/4/252 331/1/201 
f 383/4/253 382/4/252 333/1/203 
f 335/1/205 383/4/253 333/1/203 
f 384/4/254 383/4/253 335/1/205 
f 337/1/207 384/4/254 335/1/205 
f 385/4/255 384/4/254 337/1/207 
f 339/1/209 385/4/255 337/1/207 
f 386/4/256 385/4/255 339/1/209 
f 341/1/211 386/4/256 339/1/209 
f 387/4/257 386/4/256 341/1/211 
f 343/1/213 387/4/257 341/1/211 
f 388/4/258 387/4/257 343/1/213 
f 345/1/215 388/4/258 343/1/213 
f 389/4/259 388/4/258 345/1/215 
f 347/1/217 389/4/259 345/1/215 
f 390/4/260 389/4/259 347/1/217 
f 349/1/219 390/4/260 347/1/217 
f 391/4/261 390/4/260 349/1/219 
f 351/1/221 391/4/261 349/1/219 
f 392/4/262 391/4/261 351/1/221 
f 353/1/223 392/4/262 351/1/221 
f 393/4/263 392/4/262 353/1/223 
f 355/1/225 393/4/263 353/1/223 
f 394/4/264 393/4/263 355/1/225 
f 357/1/227 394/4/264 355/1/225 
f 395/4/265 394/4/264 357/1/227 
f 359/1/229 395/4/265 357/1/227 
f 396/4/266 395/4/265 359/1/229 
f 361/1/231 396/4/266 359/1/229 
f 397/4/267 396/4/266 361/1/231 
f 363/1/233 397/4/267 361/1/231 
f 398/4/268 397/4/267 363/1/233 
f 365/1/235 398/4/268 363/1/233 
f 399/4/269 398/4/268 365/1/235 
f 367/1/237 399/4/269 365/1/235 
f 400/4/270 399/4/269 367/1/237 
f 369/1/239 400/4/270 367/1/237 
f 401/4/271 400/4/270 369/1/239 
f 371/1/241 401/4/271 369/1/239 
f 402/4/272 401/4/271 371/1/241 
f 373/1/243 402/4/272 371/1/241 
f 403/4/273 402/4/272 373/1/243 
f 374/1/244 403/4/273 373/1/243 
f 312/4/182 403/4/273 374/1/244 
f 311/1/181 312/4/182 374/1/244 
f 404/3/274 316/3/186 320/4/190 
f 405/3/275 404/3/274 320/4/190 
f 406/3/276 405/3/275 320/4/190 
f 377/4/247 406/3/276 320/4/190 
f 407/3/277 406/3/276 377/4/247 
f 378/4/248 407/3/277 377/4/247 
f 408/3/278 407/3/277 378/4/248 
f 379/4/249 408/3/278 378/4/248 
f 409/3/279 408/3/278 379/4/249 
f 380/4/250 409/3/279 379/4/249 
f 410/3/280 409/3/279 380/4/250 
f 381/4/251 410/3/280 380/4/250 
f 411/3/281 410/3/280 381/4/251 
f 382/4/252 411/3/281 381/4/251 
f 412/3/282 411/3/281 382/4/252 
f 383/4/253 412/3/282 382/4/252 
f 413/3/283 412/3/282 383/4/253 
f 384/4/254 413/3/283 383/4/253 
f 414/3/284 413/3/283 384/4/254 
f 385/4/255 414/3/284 384/4/254 
f 415/3/285 414/3/284 385/4/255 
f 386/4/256 415/3/285 385/4/255 
f 416/3/286 415/3/285 386/4/256 
f 387/4/257 416/3/286 386/4/256 
f 417/3/287 416/3/286 387/4/257 
f 388/4/258 417/3/287 387/4/257 
f 418/3/288 417/3/287 388/4/258 
f 389/4/259 418/3/288 388/4/258 
f 419/3/289 418/3/288 389/4/259 
f 390/4/260 419/3/289 389/4/259 
f 420/3/290 419/3/289 390/4/260 
f 391/4/261 420/3/290 390/4/260 
f 421/3/291 420/3/290 391/4/261 
f 392/4/262 421/3/291 391/4/261 
f 422/3/292 421/3/291 392/4/262 
f 393/4/263 422/3/292 392/4/262 
f 423/3/293 422/3/292 393/4/263 
f 394/4/264 423/3/293 393/4/263 
f 424/3/294 423/3/293 394/4/264 
f 395/4/265 424/3/294 394/4/264 
f 425/3/295 424/3/294 395/4/265 
f 396/4/266 425/3/295 395/4/265 
f 426/3/296 425/3/295 396/4/266 
f 397/4/267 426/3/296 396/4/266 
f 427/3/297 426/3/296 397/4/267 
f 398/4/268 427/3/297 397/4/267 
f 428/3/298 427/3/297 398/4/268 
f 399/4/269 428/3/298 398/4/268 
f 376/3/246 428/3/298 399/4/269 
f 400/4/270 376/3/246 399/4/269 
f 375/3/245 376/3/246 400/4/270 
f 401/4/271 375/3/245 400/4/270 
f 319/3/189 375/3/245 401/4/271 
f 402/4/272 319/3/189 401/4/271 
f 225/3/179 319/3/189 402/4/272 
f 403/4/273 225/3/179 402/4/272 
f 226/3/180 225/3/179 403/4/273 
f 312/4/182 226/3/180 403/4/273 
f 321/2/191 313/2/183 316/3/186 
f 404/3/274 321/2/191 316/3/186 
f 322/2/192 321/2/191 404/3/274 
f 405/3/275 322/2/192 404/3/274 
f 324/2/194 322/2/192 405/3/275 
f 406/3/276 324/2/194 405/3/275 
f 326/2/196 324/2/194 406/3/276 
f 407/3/277 326/2/196 406/3/276 
f 328/2/198 326/2/196 407/3/277 
f 408/3/278 328/2/198 407/3/277 
f 330/2/200 328/2/198 408/3/278 
f 409/3/279 330/2/200 408/3/278 
f 332/2/202 330/2/200 409/3/279 
f 410/3/280 332/2/202 409/3/279 
f 334/2/204 332/2/202 410/3/280 
f 411/3/281 334/2/204 410/3/280 
f 336/2/206 334/2/204 411/3/281 
f 412/3/282 336/2/206 411/3/281 
f 338/2/208 336/2/206 412/3/282 
f 413/3/283 338/2/208 412/3/282 
f 340/2/210 338/2/208 413/3/283 
f 414/3/284 340/2/210 413/3/283 
f 342/2/212 340/2/210 414/3/284 
f 415/3/285 342/2/212 414/3/284 
f 344/2/214 342/2/212 415/3/285 
f 416/3/286 344/2/214 415/3/285 
f 346/2/216 344/2/214 416/3/286 
f 417/3/287 346/2/216 416/3/286 
f 348/2/218 346/2/216 417/3/287 
f 418/3/288 348/2/218 417/3/287 
f 350/2/220 348/2/218 418/3/288 
f 419/3/289 350/2/220 418/3/288 
f 352/2/222 350/2/220 419/3/289 
f 420/3/290 352/2/222 419/3/289 
f 354/2/224 352/2/222 420/3/290 
f 421/3/291 354/2/224 420/3/290 
f 356/2/226 354/2/224 421/3/291 
f 422/3/292 356/2/226 421/3/291 
f 358/2/228 356/2/226 422/3/292 
f 423/3/293 358/2/228 422/3/292 
f 360/2/230 358/2/228 423/3/293 
f 424/3/294 360/2/230 423/3/293 
f 362/2/232 360/2/230 424/3/294 
f 425/3/295 362/2/232 424/3/294 
f 364/2/234 362/2/232 425/3/295 
f 426/3/296 364/2/234 425/3/295 
f 366/2/236 364/2/234 426/3/296 
f 427/3/297 366/2/236 426/3/296 
f 368/2/238 366/2/236 427/3/297 
f 428/3/298 368/2/238 427/3/297 
f 370/2/240 368/2/238 428/3/298 
f 376/3/246 370/2/240 428/3/298 
f 314/2/184 102/2/64 101/3/63 
f 315/3/185 314/2/184 101/3/63 
f 315/3/185 101/3/63 106/4/68 
f 320/4/190 315/3/185 106/4/68 
f 320/4/190 106/4/68 103/1/65 
f 317/1/187 320/4/190 103/1/65 
f 102/2/64 314/2/184 317/1/187 
f 103/1/65 102/2/64 317/1/187 
f 220/4/10 222/4/7 217/4/5 
f 216/4/2 220/4/10 217/4/5 
f 8/4/7 6/4/5 4/4/2 
f 3/4/10 8/4/7 4/4/2 
# 0 polygons - 852 triangles

