# 3ds Max Wavefront OBJ Exporter v0.99 - (c)2007 guruware
# File Created: 12.10.2024 19:20:07

mtllib Cartel.mtl

#
# object Box001
#

v  -5.6157 0.0000 1.0501
v  -5.6157 0.0000 -1.0501
v  5.6157 0.0000 -1.0501
v  5.6157 0.0000 1.0501
v  -5.6157 1.5412 1.0501
v  5.6157 1.5412 1.0501
v  5.6157 1.5412 -1.0501
v  -5.6157 1.5412 -1.0501
# 8 vertices

vn -0.5774 -0.5774 0.5774
vn -0.5774 -0.5774 -0.5774
vn 0.5774 -0.5774 -0.5774
vn 0.5774 -0.5774 0.5774
vn -0.5774 0.5774 0.5774
vn 0.5774 0.5774 0.5774
vn 0.5774 0.5774 -0.5774
vn -0.5774 0.5774 -0.5774
# 8 vertex normals

vt 2.4505 -1.4091 0.0000
vt 2.4505 -0.4343 0.0000
vt 1.4757 -0.4343 0.0000
vt 1.4757 -1.4091 0.0000
vt 0.9894 0.7854 0.0000
vt 0.9752 0.9600 0.0000
vt -0.0242 0.9943 0.0000
vt 0.0047 0.8051 0.0000
vt -0.0165 0.1565 0.0000
vt 0.9883 0.1371 0.0000
vt 0.9835 0.0019 0.0000
vt -0.0165 0.0213 0.0000
vt -0.0239 0.8030 0.0000
vt 0.9836 0.7866 0.0000
vt 0.9754 0.9661 0.0000
vt -0.0075 0.9989 0.0000
vt -0.0175 -0.0020 0.0000
vt 0.9825 -0.0020 0.0000
vt 0.9825 0.9980 0.0000
vt -0.0175 0.9980 0.0000
vt -0.0238 0.0259 0.0000
vt 0.9810 0.0114 0.0000
vt 0.9907 0.1479 0.0000
vt -0.0044 0.1333 0.0000
# 24 texture coords

o Box001
g Box001
usemtl 01___Default
s 2
f 1/1/1 2/2/2 3/3/3 4/4/4 
s 4
f 5/5/5 6/6/6 7/7/7 8/8/8 
s 8
f 1/9/1 4/10/4 6/11/6 5/12/5 
s 16
f 4/13/4 3/14/3 7/15/7 6/16/6 
s 32
f 3/17/3 2/18/2 8/19/8 7/20/7 
s 64
f 2/21/2 1/22/1 5/23/5 8/24/8 
# 6 polygons

